<svg version="1.1" viewBox="0.0 0.0 335.03674540682414 159.85301837270342" fill="none" stroke="none" stroke-linecap="square" stroke-miterlimit="10" xmlns:xlink="http://www.w3.org/1999/xlink" xmlns="http://www.w3.org/2000/svg"><clipPath id="p.0"><path d="m0 0l335.03674 0l0 159.85301l-335.03674 0l0 -159.85301z" clip-rule="nonzero"/></clipPath><g clip-path="url(#p.0)"><path fill="#000000" fill-opacity="0.0" d="m0 0l335.03674 0l0 159.85301l-335.03674 0z" fill-rule="evenodd"/><path fill="#f9cb9c" d="m293.07874 37.026245l-59.307083 0l0 16.944885l59.307083 0z" fill-rule="evenodd"/><path stroke="#000000" stroke-width="1.0" stroke-linejoin="round" stroke-linecap="butt" d="m293.07874 37.026245l-59.307083 0l0 16.944885l59.307083 0z" fill-rule="evenodd"/><path fill="#f9cb9c" d="m197.72441 37.026245l-59.307083 0l0 16.944885l59.307083 0z" fill-rule="evenodd"/><path stroke="#000000" stroke-width="1.0" stroke-linejoin="round" stroke-linecap="butt" d="m197.72441 37.026245l-59.307083 0l0 16.944885l59.307083 0z" fill-rule="evenodd"/><path fill="#ffffff" d="m180.57457 24.963255l-25.007874 0l0 12.06299l25.007874 0z" fill-rule="evenodd"/><path stroke="#000000" stroke-width="1.0" stroke-linejoin="round" stroke-linecap="butt" d="m180.57457 24.963255l-25.007874 0l0 12.06299l25.007874 0z" fill-rule="evenodd"/><path fill="#f9cb9c" d="m102.37008 37.026245l-59.307087 0l0 16.944885l59.307087 0z" fill-rule="evenodd"/><path stroke="#000000" stroke-width="1.0" stroke-linejoin="round" stroke-linecap="butt" d="m102.37008 37.026245l-59.307087 0l0 16.944885l59.307087 0z" fill-rule="evenodd"/><path fill="#f9cb9c" d="m293.07874 113.65879l-59.307083 0l0 16.944878l59.307083 0z" fill-rule="evenodd"/><path stroke="#000000" stroke-width="1.0" stroke-linejoin="round" stroke-linecap="butt" d="m293.07874 113.65879l-59.307083 0l0 16.944878l59.307083 0z" fill-rule="evenodd"/><path fill="#f9cb9c" d="m197.72441 113.65879l-59.307083 0l0 16.944878l59.307083 0z" fill-rule="evenodd"/><path stroke="#000000" stroke-width="1.0" stroke-linejoin="round" stroke-linecap="butt" d="m197.72441 113.65879l-59.307083 0l0 16.944878l59.307083 0z" fill-rule="evenodd"/><path fill="#f9cb9c" d="m102.37008 113.65879l-59.307087 0l0 16.944878l59.307087 0z" fill-rule="evenodd"/><path stroke="#000000" stroke-width="1.0" stroke-linejoin="round" stroke-linecap="butt" d="m102.37008 113.65879l-59.307087 0l0 16.944878l59.307087 0z" fill-rule="evenodd"/><path fill="#000000" fill-opacity="0.0" d="m279.56693 47.307087l-32.283463 0l0 42.01575l32.283463 0z" fill-rule="evenodd"/><path fill="#ffffff" d="m265.19046 74.22708l-1.640625 0l0 -10.453121q-0.59375 0.5624962 -1.5625 1.1406212q-0.953125 0.5625 -1.71875 0.84375l0 -1.59375q1.375 -0.6406212 2.40625 -1.5624962q1.03125 -0.921875 1.453125 -1.78125l1.0625 0l0 13.406246z" fill-rule="nonzero"/><path fill="#000000" fill-opacity="0.0" d="m184.2126 47.307087l-32.283463 0l0 42.01575l32.283463 0z" fill-rule="evenodd"/><path fill="#ffffff" d="m169.83614 74.22708l-1.640625 0l0 -10.453121q-0.59375 0.5624962 -1.5625 1.1406212q-0.953125 0.5625 -1.71875 0.84375l0 -1.59375q1.375 -0.6406212 2.40625 -1.5624962q1.03125 -0.921875 1.453125 -1.78125l1.0625 0l0 13.406246z" fill-rule="nonzero"/><path fill="#000000" fill-opacity="0.0" d="m88.85827 47.307087l-32.283466 0l0 42.01575l32.283466 0z" fill-rule="evenodd"/><path fill="#ffffff" d="m68.30993 67.63333q0 -2.359375 0.484375 -3.7968712q0.484375 -1.453125 1.4375 -2.234375q0.96875 -0.78125 2.421875 -0.78125q1.078125 0 1.890625 0.4375q0.8125 0.421875 1.328125 1.25q0.53125 0.8125 0.828125 1.9843712q0.3125 1.15625 0.3125 3.140625q0 2.359375 -0.484375 3.8125q-0.484375 1.4375 -1.453125 2.234375q-0.953125 0.78125 -2.421875 0.78125q-1.921875 0 -3.03125 -1.390625q-1.3125 -1.671875 -1.3125 -5.4375zm1.671875 0q0 3.296875 0.765625 4.390625q0.78125 1.078125 1.90625 1.078125q1.140625 0 1.90625 -1.09375q0.765625 -1.09375 0.765625 -4.375q0 -3.296875 -0.765625 -4.374996q-0.765625 -1.078125 -1.921875 -1.078125q-1.125 0 -1.796875 0.953125q-0.859375 1.2187462 -0.859375 4.499996z" fill-rule="nonzero"/><path fill="#000000" fill-opacity="0.0" d="m279.56693 126.24147l-32.283463 0l0 42.015747l32.283463 0z" fill-rule="evenodd"/><path fill="#ffffff" d="m259.0186 146.56772q0 -2.359375 0.484375 -3.796875q0.484375 -1.453125 1.4375 -2.234375q0.96875 -0.78125 2.421875 -0.78125q1.078125 0 1.890625 0.4375q0.8125 0.421875 1.328125 1.25q0.53125 0.8125 0.828125 1.984375q0.3125 1.15625 0.3125 3.140625q0 2.359375 -0.484375 3.8125q-0.484375 1.4375 -1.453125 2.234375q-0.953125 0.78125 -2.421875 0.78125q-1.921875 0 -3.03125 -1.390625q-1.3125 -1.671875 -1.3125 -5.4375zm1.671875 0q0 3.296875 0.765625 4.390625q0.78125 1.078125 1.90625 1.078125q1.140625 0 1.90625 -1.09375q0.765625 -1.09375 0.765625 -4.375q0 -3.296875 -0.765625 -4.375q-0.765625 -1.078125 -1.921875 -1.078125q-1.125 0 -1.796875 0.953125q-0.859375 1.21875 -0.859375 4.5z" fill-rule="nonzero"/><path fill="#000000" fill-opacity="0.0" d="m184.2126 126.24147l-32.283463 0l0 42.015747l32.283463 0z" fill-rule="evenodd"/><path fill="#ffffff" d="m163.66426 146.56772q0 -2.359375 0.484375 -3.796875q0.484375 -1.453125 1.4375 -2.234375q0.96875 -0.78125 2.421875 -0.78125q1.078125 0 1.890625 0.4375q0.8125 0.421875 1.328125 1.25q0.53125 0.8125 0.828125 1.984375q0.3125 1.15625 0.3125 3.140625q0 2.359375 -0.484375 3.8125q-0.484375 1.4375 -1.453125 2.234375q-0.953125 0.78125 -2.421875 0.78125q-1.921875 0 -3.03125 -1.390625q-1.3125 -1.671875 -1.3125 -5.4375zm1.671875 0q0 3.296875 0.765625 4.390625q0.78125 1.078125 1.90625 1.078125q1.140625 0 1.90625 -1.09375q0.765625 -1.09375 0.765625 -4.375q0 -3.296875 -0.765625 -4.375q-0.765625 -1.078125 -1.921875 -1.078125q-1.125 0 -1.796875 0.953125q-0.859375 1.21875 -0.859375 4.5z" fill-rule="nonzero"/><path fill="#000000" fill-opacity="0.0" d="m88.85827 126.24147l-32.283466 0l0 42.015747l32.283466 0z" fill-rule="evenodd"/><path fill="#ffffff" d="m74.481804 153.16147l-1.640625 0l0 -10.453125q-0.59375 0.5625 -1.5625 1.140625q-0.953125 0.5625 -1.71875 0.84375l0 -1.59375q1.375 -0.640625 2.40625 -1.5625q1.03125 -0.921875 1.453125 -1.78125l1.0625 0l0 13.40625z" fill-rule="nonzero"/><path fill="#ffffff" d="m183.22568 12.900263l-30.309631 0c-0.5332184 0 -1.0446167 0.21182346 -1.4216614 0.5888729c-0.37704468 0.37704945 -0.5888672 0.8884373 -0.5888672 1.4216652l0 10.052454c0 1.5830994E-4 1.2207031E-4 2.861023E-4 2.746582E-4 2.861023E-4l34.33043 -2.861023E-4l0 0c1.5258789E-4 0 2.89917E-4 -1.2779236E-4 2.89917E-4 -2.861023E-4l-2.89917E-4 -10.052168l0 0c0 -1.1103897 -0.9001465 -2.010538 -2.0105438 -2.010538z" fill-rule="evenodd"/><path stroke="#000000" stroke-width="1.0" stroke-linejoin="round" stroke-linecap="butt" d="m183.22568 12.900263l-30.309631 0c-0.5332184 0 -1.0446167 0.21182346 -1.4216614 0.5888729c-0.37704468 0.37704945 -0.5888672 0.8884373 -0.5888672 1.4216652l0 10.052454c0 1.5830994E-4 1.2207031E-4 2.861023E-4 2.746582E-4 2.861023E-4l34.33043 -2.861023E-4l0 0c1.5258789E-4 0 2.89917E-4 -1.2779236E-4 2.89917E-4 -2.861023E-4l-2.89917E-4 -10.052168l0 0c0 -1.1103897 -0.9001465 -2.010538 -2.0105438 -2.010538z" fill-rule="evenodd"/><path fill="#ffffff" d="m275.9289 24.963255l-25.007874 0l0 12.06299l25.007874 0z" fill-rule="evenodd"/><path stroke="#000000" stroke-width="1.0" stroke-linejoin="round" stroke-linecap="butt" d="m275.9289 24.963255l-25.007874 0l0 12.06299l25.007874 0z" fill-rule="evenodd"/><path fill="#ffffff" d="m278.58002 12.900263l-30.309631 0c-0.53323364 0 -1.0446167 0.21182346 -1.4216766 0.5888729c-0.37704468 0.37704945 -0.5888672 0.8884373 -0.5888672 1.4216652l0 10.052454c0 1.5830994E-4 1.2207031E-4 2.861023E-4 2.89917E-4 2.861023E-4l34.330414 -2.861023E-4l0 0c1.5258789E-4 0 3.0517578E-4 -1.2779236E-4 3.0517578E-4 -2.861023E-4l-3.0517578E-4 -10.052168l0 0c0 -1.1103897 -0.9001465 -2.010538 -2.0105286 -2.010538z" fill-rule="evenodd"/><path stroke="#000000" stroke-width="1.0" stroke-linejoin="round" stroke-linecap="butt" d="m278.58002 12.900263l-30.309631 0c-0.53323364 0 -1.0446167 0.21182346 -1.4216766 0.5888729c-0.37704468 0.37704945 -0.5888672 0.8884373 -0.5888672 1.4216652l0 10.052454c0 1.5830994E-4 1.2207031E-4 2.861023E-4 2.89917E-4 2.861023E-4l34.330414 -2.861023E-4l0 0c1.5258789E-4 0 3.0517578E-4 -1.2779236E-4 3.0517578E-4 -2.861023E-4l-3.0517578E-4 -10.052168l0 0c0 -1.1103897 -0.9001465 -2.010538 -2.0105286 -2.010538z" fill-rule="evenodd"/><path fill="#ffffff" d="m85.22023 101.490814l-25.00787 0l0 12.062988l25.00787 0z" fill-rule="evenodd"/><path stroke="#000000" stroke-width="1.0" stroke-linejoin="round" stroke-linecap="butt" d="m85.22023 101.490814l-25.00787 0l0 12.062988l25.00787 0z" fill-rule="evenodd"/><path fill="#ffffff" d="m87.87135 89.42782l-30.309631 0c-0.5332298 0 -1.0446167 0.21183014 -1.421669 0.5888748c-0.3770485 0.3770523 -0.588871 0.888443 -0.588871 1.421669l0 10.052452c0 1.6021729E-4 1.2588501E-4 2.822876E-4 2.861023E-4 2.822876E-4l34.33042 -2.822876E-4l0 0c1.6021729E-4 0 2.89917E-4 -1.296997E-4 2.89917E-4 -2.89917E-4l-2.89917E-4 -10.052162l0 0c0 -1.1103897 -0.9001465 -2.0105438 -2.0105362 -2.0105438z" fill-rule="evenodd"/><path stroke="#000000" stroke-width="1.0" stroke-linejoin="round" stroke-linecap="butt" d="m87.87135 89.42782l-30.309631 0c-0.5332298 0 -1.0446167 0.21183014 -1.421669 0.5888748c-0.3770485 0.3770523 -0.588871 0.888443 -0.588871 1.421669l0 10.052452c0 1.6021729E-4 1.2588501E-4 2.822876E-4 2.861023E-4 2.822876E-4l34.33042 -2.822876E-4l0 0c1.6021729E-4 0 2.89917E-4 -1.296997E-4 2.89917E-4 -2.89917E-4l-2.89917E-4 -10.052162l0 0c0 -1.1103897 -0.9001465 -2.0105438 -2.0105362 -2.0105438z" fill-rule="evenodd"/><path fill="#000000" fill-opacity="0.0" d="m246.25984 18.923885c-14.1483 0 -8.749344 19.133858 -28.296585 38.267715c-19.547256 19.133862 -64.04068 38.26772 -128.08136 38.26772" fill-rule="evenodd"/><path stroke="#ffffff" stroke-width="1.0" stroke-linejoin="round" stroke-linecap="butt" d="m246.25984 18.923885c-14.1483 0 -8.749344 19.133858 -28.296585 38.267715c-9.773621 9.566929 -25.783798 19.133862 -47.35565 26.309055c-10.785919 3.5876007 -22.962265 6.577263 -36.44467 8.670029c-6.7412033 1.0463867 -13.808922 1.8685455 -21.192604 2.4291077c-3.6918488 0.28027344 -7.4626923 0.49515533 -11.311195 0.6399765c-1.9242554 0.072402954 -3.8679352 0.12728882 -5.830864 0.16407013c-0.4907303 0.00920105 -0.982666 0.01726532 -1.4758072 0.02420044l-1.043541 0.012199402" fill-rule="evenodd"/><path fill="#ffffff" stroke="#ffffff" stroke-width="1.0" stroke-linecap="butt" d="m93.30892 95.44024l1.118309 -1.1308289l-3.083458 1.1417694l3.0959778 1.1073608z" fill-rule="evenodd"/></g></svg>