<svg version="1.1" viewBox="0.0 0.0 335.03674540682414 159.85301837270342" fill="none" stroke="none" stroke-linecap="square" stroke-miterlimit="10" xmlns:xlink="http://www.w3.org/1999/xlink" xmlns="http://www.w3.org/2000/svg"><clipPath id="p.0"><path d="m0 0l335.03674 0l0 159.85301l-335.03674 0l0 -159.85301z" clip-rule="nonzero"/></clipPath><g clip-path="url(#p.0)"><path fill="#000000" fill-opacity="0.0" d="m0 0l335.03674 0l0 159.85301l-335.03674 0z" fill-rule="evenodd"/><path fill="#f9cb9c" d="m43.062992 37.026245l59.307087 0l0 16.944885l-59.307087 0z" fill-rule="evenodd"/><path stroke="#000000" stroke-width="1.0" stroke-linejoin="round" stroke-linecap="butt" d="m43.062992 37.026245l59.307087 0l0 16.944885l-59.307087 0z" fill-rule="evenodd"/><path fill="#f9cb9c" d="m138.41733 37.026245l59.307083 0l0 16.944885l-59.307083 0z" fill-rule="evenodd"/><path stroke="#000000" stroke-width="1.0" stroke-linejoin="round" stroke-linecap="butt" d="m138.41733 37.026245l59.307083 0l0 16.944885l-59.307083 0z" fill-rule="evenodd"/><path fill="#ffffff" d="m155.56717 24.963255l25.007874 0l0 12.06299l-25.007874 0z" fill-rule="evenodd"/><path stroke="#000000" stroke-width="1.0" stroke-linejoin="round" stroke-linecap="butt" d="m155.56717 24.963255l25.007874 0l0 12.06299l-25.007874 0z" fill-rule="evenodd"/><path fill="#f9cb9c" d="m233.77165 37.026245l59.307083 0l0 16.944885l-59.307083 0z" fill-rule="evenodd"/><path stroke="#000000" stroke-width="1.0" stroke-linejoin="round" stroke-linecap="butt" d="m233.77165 37.026245l59.307083 0l0 16.944885l-59.307083 0z" fill-rule="evenodd"/><path fill="#f9cb9c" d="m43.062992 113.65879l59.307087 0l0 16.944878l-59.307087 0z" fill-rule="evenodd"/><path stroke="#000000" stroke-width="1.0" stroke-linejoin="round" stroke-linecap="butt" d="m43.062992 113.65879l59.307087 0l0 16.944878l-59.307087 0z" fill-rule="evenodd"/><path fill="#f9cb9c" d="m138.41733 113.65879l59.307083 0l0 16.944878l-59.307083 0z" fill-rule="evenodd"/><path stroke="#000000" stroke-width="1.0" stroke-linejoin="round" stroke-linecap="butt" d="m138.41733 113.65879l59.307083 0l0 16.944878l-59.307083 0z" fill-rule="evenodd"/><path fill="#f9cb9c" d="m233.77165 113.65879l59.307083 0l0 16.944878l-59.307083 0z" fill-rule="evenodd"/><path stroke="#000000" stroke-width="1.0" stroke-linejoin="round" stroke-linecap="butt" d="m233.77165 113.65879l59.307083 0l0 16.944878l-59.307083 0z" fill-rule="evenodd"/><path fill="#000000" fill-opacity="0.0" d="m56.574802 47.307087l32.283466 0l0 42.01575l-32.283466 0z" fill-rule="evenodd"/><path fill="#ffffff" d="m74.481804 74.22708l-1.640625 0l0 -10.453121q-0.59375 0.5624962 -1.5625 1.1406212q-0.953125 0.5625 -1.71875 0.84375l0 -1.59375q1.375 -0.6406212 2.40625 -1.5624962q1.03125 -0.921875 1.453125 -1.78125l1.0625 0l0 13.406246z" fill-rule="nonzero"/><path fill="#000000" fill-opacity="0.0" d="m151.92914 47.307087l32.283463 0l0 42.01575l-32.283463 0z" fill-rule="evenodd"/><path fill="#ffffff" d="m169.83614 74.22708l-1.640625 0l0 -10.453121q-0.59375 0.5624962 -1.5625 1.1406212q-0.953125 0.5625 -1.71875 0.84375l0 -1.59375q1.375 -0.6406212 2.40625 -1.5624962q1.03125 -0.921875 1.453125 -1.78125l1.0625 0l0 13.406246z" fill-rule="nonzero"/><path fill="#000000" fill-opacity="0.0" d="m247.28346 47.307087l32.283463 0l0 42.01575l-32.283463 0z" fill-rule="evenodd"/><path fill="#ffffff" d="m259.0186 67.63333q0 -2.359375 0.484375 -3.7968712q0.484375 -1.453125 1.4375 -2.234375q0.96875 -0.78125 2.421875 -0.78125q1.078125 0 1.890625 0.4375q0.8125 0.421875 1.328125 1.25q0.53125 0.8125 0.828125 1.9843712q0.3125 1.15625 0.3125 3.140625q0 2.359375 -0.484375 3.8125q-0.484375 1.4375 -1.453125 2.234375q-0.953125 0.78125 -2.421875 0.78125q-1.921875 0 -3.03125 -1.390625q-1.3125 -1.671875 -1.3125 -5.4375zm1.671875 0q0 3.296875 0.765625 4.390625q0.78125 1.078125 1.90625 1.078125q1.140625 0 1.90625 -1.09375q0.765625 -1.09375 0.765625 -4.375q0 -3.296875 -0.765625 -4.374996q-0.765625 -1.078125 -1.921875 -1.078125q-1.125 0 -1.796875 0.953125q-0.859375 1.2187462 -0.859375 4.499996z" fill-rule="nonzero"/><path fill="#000000" fill-opacity="0.0" d="m56.574802 126.24147l32.283466 0l0 42.015747l-32.283466 0z" fill-rule="evenodd"/><path fill="#ffffff" d="m68.30993 146.56772q0 -2.359375 0.484375 -3.796875q0.484375 -1.453125 1.4375 -2.234375q0.96875 -0.78125 2.421875 -0.78125q1.078125 0 1.890625 0.4375q0.8125 0.421875 1.328125 1.25q0.53125 0.8125 0.828125 1.984375q0.3125 1.15625 0.3125 3.140625q0 2.359375 -0.484375 3.8125q-0.484375 1.4375 -1.453125 2.234375q-0.953125 0.78125 -2.421875 0.78125q-1.921875 0 -3.03125 -1.390625q-1.3125 -1.671875 -1.3125 -5.4375zm1.671875 0q0 3.296875 0.765625 4.390625q0.78125 1.078125 1.90625 1.078125q1.140625 0 1.90625 -1.09375q0.765625 -1.09375 0.765625 -4.375q0 -3.296875 -0.765625 -4.375q-0.765625 -1.078125 -1.921875 -1.078125q-1.125 0 -1.796875 0.953125q-0.859375 1.21875 -0.859375 4.5z" fill-rule="nonzero"/><path fill="#000000" fill-opacity="0.0" d="m151.92914 126.24147l32.283463 0l0 42.015747l-32.283463 0z" fill-rule="evenodd"/><path fill="#ffffff" d="m163.66426 146.56772q0 -2.359375 0.484375 -3.796875q0.484375 -1.453125 1.4375 -2.234375q0.96875 -0.78125 2.421875 -0.78125q1.078125 0 1.890625 0.4375q0.8125 0.421875 1.328125 1.25q0.53125 0.8125 0.828125 1.984375q0.3125 1.15625 0.3125 3.140625q0 2.359375 -0.484375 3.8125q-0.484375 1.4375 -1.453125 2.234375q-0.953125 0.78125 -2.421875 0.78125q-1.921875 0 -3.03125 -1.390625q-1.3125 -1.671875 -1.3125 -5.4375zm1.671875 0q0 3.296875 0.765625 4.390625q0.78125 1.078125 1.90625 1.078125q1.140625 0 1.90625 -1.09375q0.765625 -1.09375 0.765625 -4.375q0 -3.296875 -0.765625 -4.375q-0.765625 -1.078125 -1.921875 -1.078125q-1.125 0 -1.796875 0.953125q-0.859375 1.21875 -0.859375 4.5z" fill-rule="nonzero"/><path fill="#000000" fill-opacity="0.0" d="m247.28346 126.24147l32.283463 0l0 42.015747l-32.283463 0z" fill-rule="evenodd"/><path fill="#ffffff" d="m265.19046 153.16147l-1.640625 0l0 -10.453125q-0.59375 0.5625 -1.5625 1.140625q-0.953125 0.5625 -1.71875 0.84375l0 -1.59375q1.375 -0.640625 2.40625 -1.5625q1.03125 -0.921875 1.453125 -1.78125l1.0625 0l0 13.40625z" fill-rule="nonzero"/><path fill="#ffffff" d="m152.91605 12.900263l30.309631 0c0.53323364 0 1.0446167 0.21182346 1.4216766 0.5888729c0.37704468 0.37704945 0.5888672 0.8884373 0.5888672 1.4216652l0 10.052454c0 1.5830994E-4 -1.2207031E-4 2.861023E-4 -2.89917E-4 2.861023E-4l-34.330414 -2.861023E-4l0 0c-1.6784668E-4 0 -2.89917E-4 -1.2779236E-4 -2.89917E-4 -2.861023E-4l2.89917E-4 -10.052168l0 0c0 -1.1103897 0.9001465 -2.010538 2.0105286 -2.010538z" fill-rule="evenodd"/><path stroke="#000000" stroke-width="1.0" stroke-linejoin="round" stroke-linecap="butt" d="m152.91605 12.900263l30.309631 0c0.53323364 0 1.0446167 0.21182346 1.4216766 0.5888729c0.37704468 0.37704945 0.5888672 0.8884373 0.5888672 1.4216652l0 10.052454c0 1.5830994E-4 -1.2207031E-4 2.861023E-4 -2.89917E-4 2.861023E-4l-34.330414 -2.861023E-4l0 0c-1.6784668E-4 0 -2.89917E-4 -1.2779236E-4 -2.89917E-4 -2.861023E-4l2.89917E-4 -10.052168l0 0c0 -1.1103897 0.9001465 -2.010538 2.0105286 -2.010538z" fill-rule="evenodd"/><path fill="#ffffff" d="m60.212837 24.963255l25.007874 0l0 12.06299l-25.007874 0z" fill-rule="evenodd"/><path stroke="#000000" stroke-width="1.0" stroke-linejoin="round" stroke-linecap="butt" d="m60.212837 24.963255l25.007874 0l0 12.06299l-25.007874 0z" fill-rule="evenodd"/><path fill="#ffffff" d="m57.56172 12.900263l30.309631 0c0.533226 0 1.0446167 0.21182346 1.4216614 0.5888729c0.3770523 0.37704945 0.5888748 0.8884373 0.5888748 1.4216652l0 10.052454c0 1.5830994E-4 -1.296997E-4 2.861023E-4 -2.822876E-4 2.861023E-4l-34.330425 -2.861023E-4l0 0c-1.6021729E-4 0 -2.861023E-4 -1.2779236E-4 -2.861023E-4 -2.861023E-4l2.861023E-4 -10.052168l0 0c0 -1.1103897 0.9001465 -2.010538 2.01054 -2.010538z" fill-rule="evenodd"/><path stroke="#000000" stroke-width="1.0" stroke-linejoin="round" stroke-linecap="butt" d="m57.56172 12.900263l30.309631 0c0.533226 0 1.0446167 0.21182346 1.4216614 0.5888729c0.3770523 0.37704945 0.5888748 0.8884373 0.5888748 1.4216652l0 10.052454c0 1.5830994E-4 -1.296997E-4 2.861023E-4 -2.822876E-4 2.861023E-4l-34.330425 -2.861023E-4l0 0c-1.6021729E-4 0 -2.861023E-4 -1.2779236E-4 -2.861023E-4 -2.861023E-4l2.861023E-4 -10.052168l0 0c0 -1.1103897 0.9001465 -2.010538 2.01054 -2.010538z" fill-rule="evenodd"/><path fill="#ffffff" d="m250.9215 101.490814l25.007889 0l0 12.062988l-25.007889 0z" fill-rule="evenodd"/><path stroke="#000000" stroke-width="1.0" stroke-linejoin="round" stroke-linecap="butt" d="m250.9215 101.490814l25.007889 0l0 12.062988l-25.007889 0z" fill-rule="evenodd"/><path fill="#ffffff" d="m248.27039 89.42782l30.309631 0c0.53323364 0 1.0446167 0.21183014 1.4216614 0.5888748c0.37704468 0.3770523 0.5888672 0.888443 0.5888672 1.421669l0 10.052452c0 1.6021729E-4 -1.2207031E-4 2.822876E-4 -2.746582E-4 2.822876E-4l-34.33043 -2.822876E-4l0 0c-1.5258789E-4 0 -2.89917E-4 -1.296997E-4 -2.89917E-4 -2.89917E-4l2.89917E-4 -10.052162l0 0c0 -1.1103897 0.9001465 -2.0105438 2.0105438 -2.0105438z" fill-rule="evenodd"/><path stroke="#000000" stroke-width="1.0" stroke-linejoin="round" stroke-linecap="butt" d="m248.27039 89.42782l30.309631 0c0.53323364 0 1.0446167 0.21183014 1.4216614 0.5888748c0.37704468 0.3770523 0.5888672 0.888443 0.5888672 1.421669l0 10.052452c0 1.6021729E-4 -1.2207031E-4 2.822876E-4 -2.746582E-4 2.822876E-4l-34.33043 -2.822876E-4l0 0c-1.5258789E-4 0 -2.89917E-4 -1.296997E-4 -2.89917E-4 -2.89917E-4l2.89917E-4 -10.052162l0 0c0 -1.1103897 0.9001465 -2.0105438 2.0105438 -2.0105438z" fill-rule="evenodd"/></g></svg>